/* XPM */
static char *outerspace_10_gif[] = {
/* columns rows colors chars-per-pixel */
"8 15 8 1 ",
"  c black",
". c #0E4D8F",
"X c #FCEE29",
"o c white",
"O c None",
"+ c black",
"@ c black",
"# c black",
/* pixels */
".......X",
"..o.....",
"..o.....",
"oo.oo...",
"..o.....",
"..o.....",
"....o...",
"..o...o.",
"........",
".o.....o",
"........",
"..o...o.",
"....o...",
"........",
"........"
};
